<svg width="127" height="37" viewBox="0 0 127 37" fill="none" xmlns="http://www.w3.org/2000/svg">
<path d="M21.5975 2.88777L18.4992 5.77545V7.55017V9.3249H16.9952H15.4912V6.01609V2.70729H12.3328H9.17441V6.01609V9.3249H5.86561H2.5568V12.4833V15.6417H5.86561H9.17441V16.9953V18.3489H7.73057C6.31681 18.3489 6.28673 18.379 3.1584 21.5073L0 24.6657H4.60225H9.17441V28.8769V33.0881H12.3328H15.4912V28.8769V24.6657H20.1536H24.816V20.1537V15.6417H29.7792H34.7425V12.4833V9.3249H29.7792H24.8461L24.7559 4.66249L24.6656 8.39233e-05L21.5975 2.88777ZM18.4391 16.9051L18.3488 18.1985H16.9952H15.6416L15.5514 16.9051L15.4611 15.6417H16.9952H18.5293L18.4391 16.9051Z" fill="#FE0000"/>
<path d="M54.9262 2.40641C54.5351 2.58689 53.8132 3.00801 53.3319 3.36897C52.4897 3.94049 51.9482 4.03073 47.2558 4.12097C41.8113 4.24129 40.6381 4.03073 41.7812 3.15841C42.3527 2.73729 42.3226 2.70721 41.4804 2.70721C40.2772 2.70721 39.2545 3.48929 39.2545 4.39169C39.2545 6.04609 42.5332 6.82817 47.5265 6.3469C49.0305 6.19649 50.2638 6.10625 50.2638 6.13633C50.2938 6.13633 49.3313 7.52002 48.1582 9.17442L45.9623 12.1824L43.1949 12.3328C40.6081 12.4832 40.3674 12.5434 39.6756 13.3255C38.3821 14.8595 38.6228 15.0701 41.5105 14.8595C42.9242 14.7392 44.0673 14.7392 44.0673 14.8295C44.0673 14.9498 43.1649 16.3635 42.082 17.9578C39.1943 22.2292 39.074 22.8308 41.0593 22.8608C41.6909 22.8608 42.2023 22.2292 44.5185 18.6196L47.2257 14.3783L48.6394 14.4986C49.8727 14.6189 50.1434 14.5587 50.8353 13.8368C51.7377 12.8743 51.4068 12.3328 49.8727 12.3328C49.3313 12.3328 48.8801 12.1824 48.8801 12.032C48.8801 11.8515 49.9028 10.3175 51.1662 8.6029C53.362 5.62497 53.5124 5.50465 54.9562 5.14369C56.9114 4.69249 58.265 3.76001 58.1447 2.88769C58.0846 2.37633 57.8138 2.25601 56.8513 2.19585C56.1895 2.16577 55.3172 2.25601 54.9262 2.40641Z" fill="white"/>
<path d="M121.644 6.3769C120.651 7.76059 120.109 8.03131 118.184 8.09147C116.801 8.12155 115.447 9.23451 115.778 10.0768C115.928 10.4678 116.229 10.4979 117.462 10.3475C118.275 10.2272 118.966 10.2272 118.966 10.3174C118.966 10.4076 118.455 11.3401 117.793 12.3929C117.162 13.4457 116.079 15.4009 115.417 16.7545C114.093 19.3414 112.439 21.056 111.236 21.056C109.912 21.056 110.333 19.7926 112.95 15.7318C114.515 13.3555 114.785 12.3628 114.003 11.7312C113.281 11.1296 111.326 11.8515 109.762 13.2953C108.258 14.679 108.168 14.6489 109.07 13.0848C109.852 11.7612 109.551 11.2198 108.228 11.6409C107.596 11.8515 106.874 12.7539 105.22 15.4611C104.047 17.3862 102.844 19.2512 102.543 19.6121C101.34 20.9056 99.4144 21.4169 99.4144 20.4243C99.4144 20.2137 100.136 18.83 101.039 17.326C101.941 15.822 102.904 14.0774 103.205 13.4457C103.686 12.423 103.716 12.2726 103.265 11.8515C102.663 11.2198 101.911 11.4604 100.497 12.784C99.5648 13.6262 99.4144 13.927 99.6851 14.2579C99.9859 14.6188 99.7754 15.1603 98.6624 17.0854C97.9104 18.3788 97.2186 19.9129 97.1283 20.5145C96.9779 21.4169 97.0682 21.6576 97.9405 22.3795C98.7226 23.0413 99.1136 23.1616 99.8355 23.0413C100.347 22.951 101.34 22.7705 102.061 22.6803C103.205 22.4998 103.535 22.2291 105.1 20.334C106.904 18.1683 111.206 13.8368 111.597 13.8368C111.717 13.8368 111.507 14.3481 111.116 14.9497C109.642 17.3561 108.438 19.943 108.438 20.7251C108.438 22.7705 110.965 23.5526 113.041 22.1389L114.124 21.3868L114.575 22.1088C115.567 23.6429 117.703 23.2819 120.109 21.2064C121.042 20.3942 121.373 19.8828 121.373 19.2211C121.373 18.7398 121.283 18.3488 121.132 18.3488C121.012 18.3488 120.26 18.8902 119.478 19.5219C117.011 21.5673 115.868 21.5072 116.56 19.3414C116.951 18.2284 119.508 13.3856 120.982 11.0393C121.613 10.0467 121.824 9.92635 122.967 9.89627C124.712 9.83611 125.975 9.53531 126.095 9.14427C126.306 8.54267 125.283 7.82075 124.17 7.82075H123.117L123.749 6.79803C124.591 5.44442 124.531 5.11354 123.478 5.11354C122.757 5.11354 122.396 5.38426 121.644 6.3769Z" fill="white"/>
<path d="M57.6334 7.70044C56.8513 8.69308 56.9114 9.74589 57.7537 9.86621C58.5358 9.98653 59.6788 8.81341 59.769 7.82076C59.8894 6.67772 58.5057 6.61756 57.6334 7.70044Z" fill="white"/>
<path d="M104.257 7.64028C103.415 8.5126 103.505 9.74589 104.378 9.86621C105.16 9.98653 106.303 8.81341 106.393 7.82076C106.513 6.73788 105.22 6.61756 104.257 7.64028Z" fill="white"/>
<path d="M82.3591 9.56543C81.8176 10.3475 80.4039 12.5734 79.1706 14.5286C77.2756 17.5366 76.674 18.2586 75.0196 19.4016C72.944 20.9056 71.6506 21.3568 70.3872 21.1462C68.5523 20.7853 69.2442 19.552 72.0416 18.1082C73.1847 17.5066 73.696 17.0554 73.696 16.6643C73.696 16.183 73.5156 16.0928 72.2221 16.183C70.7482 16.2432 70.7482 16.2432 71.2896 15.6416C71.5904 15.3107 72.3124 14.7392 72.8839 14.3782C73.8464 13.7766 73.9367 13.7766 74.2074 14.2579C74.7789 15.3107 76.8544 13.9872 76.8544 12.5734C76.8544 11.7613 76.7943 11.7312 75.3805 11.7312C71.6506 11.7312 67.8906 14.9798 69.0637 17.1757C69.3344 17.7171 69.3344 17.8976 69.0637 17.9878C68.8531 18.048 67.9507 18.7699 67.0183 19.5821C65.1834 21.1763 63.92 21.5373 63.92 20.4544C63.92 19.6723 64.4615 18.6195 66.3264 15.7318C67.8906 13.3555 68.1613 12.3629 67.3792 11.7312C66.6573 11.1296 64.7021 11.8515 63.1079 13.3254L61.7242 14.5888L62.3859 13.2653C63.168 11.7312 62.9274 11.2198 61.6039 11.641C60.9722 11.8515 60.2803 12.7238 58.656 15.401C56.3098 19.2813 55.7382 20.0032 54.505 20.665C53.6627 21.0861 52.7904 21.0259 52.7904 20.5146C52.7904 20.3642 53.753 18.5594 54.896 16.5139C56.0691 14.4685 57.0016 12.6336 57.0016 12.4531C57.0016 11.8816 56.1594 11.3702 55.5578 11.5507C55.257 11.671 54.505 12.2125 53.8733 12.784C52.9408 13.6262 52.7904 13.927 53.0611 14.2579C53.3619 14.6189 53.1514 15.1603 52.0384 17.0854C51.2864 18.3789 50.5946 19.913 50.5043 20.5146C50.3539 21.417 50.4442 21.6576 51.3165 22.3795C52.0986 23.0413 52.4896 23.1616 53.2115 23.0413C53.7229 22.951 54.7155 22.7706 55.4374 22.6803C56.5805 22.4998 56.9114 22.2291 58.4755 20.3341C60.2803 18.1683 64.5818 13.8368 64.9728 13.8368C65.0931 13.8368 64.8826 14.3482 64.4915 14.9498C63.0176 17.3562 61.8144 19.943 61.8144 20.7251C61.8144 22.6502 64.2208 23.4925 66.176 22.2893C67.0483 21.7478 67.1085 21.7478 67.8906 22.3194C69.2141 23.2218 71.3799 23.3421 73.0644 22.5901L74.5082 21.9584L73.666 23.4023C73.2148 24.1843 72.2522 25.7485 71.5303 26.9216C70.8083 28.0647 70.2368 29.2979 70.2368 29.6288C70.2368 30.2605 70.7482 30.9824 71.1693 30.9824C71.2896 30.9824 72.7034 28.8768 74.3277 26.32C76.7642 22.4096 77.3056 21.7178 77.5764 22.169C77.7268 22.4698 77.9975 22.8006 78.178 22.921C78.6292 23.2218 80.073 22.921 81.3664 22.2291C84.946 20.3341 88.8263 13.897 87.3223 12.393C86.4801 11.5507 84.0737 12.2726 81.938 14.0474C81.3965 14.4986 81.0656 14.679 81.216 14.4384C81.3664 14.1978 82.2087 12.8742 83.081 11.5206C84.8557 8.75327 85.0061 8.12159 84.0135 8.12159C83.5322 8.12159 83.0209 8.54271 82.3591 9.56543ZM85.2769 14.7091C85.2769 15.5514 82.7802 18.8 81.3364 19.8528C80.0429 20.7552 78.3584 21.0861 78.3584 20.3642C78.3885 19.4918 83.9834 14.1376 84.8858 14.1376C85.0964 14.1376 85.2769 14.4083 85.2769 14.7091Z" fill="white"/>
<path d="M92.6466 12.2425C89.037 14.1376 86.2395 18.6797 87.1119 21.2665C87.9842 23.9136 91.2328 23.2518 94.5416 19.7024C97.3691 16.6944 98.6927 13.2653 97.309 12.6336C97.0683 12.5133 96.557 12.2726 96.196 12.0921C95.2635 11.6109 93.7295 11.671 92.6466 12.2425ZM95.2335 14.0173C95.5643 14.4384 95.5343 14.679 94.9327 15.7619C93.7896 17.7171 92.7368 18.9805 91.4735 19.9129C90.1199 20.8755 88.8866 21.0259 88.8866 20.2137C88.9167 18.6797 91.3231 15.2806 93.2482 14.0774C94.3611 13.4157 94.7221 13.3856 95.2335 14.0173Z" fill="white"/>
<path d="M26.6809 24.1845L26.7712 26.8315L24.1241 26.7112C22.2892 26.6209 21.5974 26.6811 21.808 26.8917C21.9884 27.0721 23.312 27.2827 24.7558 27.3128L27.3728 27.4331L27.2825 24.756C27.2224 23.3121 27.0419 21.9585 26.8915 21.8081C26.6809 21.5976 26.6208 22.4097 26.6809 24.1845Z" fill="#FE0000"/>
<path d="M28.7264 26.3501V28.9671L26.1696 28.8167C24.3347 28.7264 23.703 28.7866 23.9136 28.9971C24.094 29.1776 25.3875 29.3882 26.7712 29.4483L29.328 29.5386V26.8314C29.328 25.3274 29.2076 24.0038 29.0272 23.9136C28.8467 23.7933 28.7264 24.6656 28.7264 26.3501Z" fill="#FE0000"/>
<path d="M65.1233 31.2832C65.1233 31.4336 65.2737 31.584 65.4241 31.584C65.6046 31.584 65.7249 31.4336 65.7249 31.2832C65.7249 31.1027 65.6046 30.9824 65.4241 30.9824C65.2737 30.9824 65.1233 31.1027 65.1233 31.2832Z" fill="white"/>
<path d="M90.24 31.223C90.0595 31.3433 89.9392 31.8246 89.9392 32.336C89.9091 32.8173 89.8189 33.7497 89.6985 34.3513C89.5181 35.2537 89.5481 35.4944 89.9091 35.4944C90.1497 35.4944 90.4505 35.344 90.5709 35.1334C90.6912 34.9229 90.6611 34.8928 90.4505 35.0131C89.9993 35.2838 89.9993 34.7424 90.4205 32.7872C90.7513 31.1929 90.7213 30.8621 90.24 31.223Z" fill="white"/>
<path d="M52.0386 31.4638C52.2793 31.554 52.2793 32.1556 52.0687 33.3889C51.7679 35.2538 51.9484 35.8855 52.5801 35.1937C52.8809 34.8929 52.8508 34.8628 52.5199 35.0433C52.189 35.2538 52.1288 35.1034 52.3093 34.2612C52.9109 31.4938 52.9109 31.2833 52.3093 31.3134C51.9784 31.3134 51.8882 31.4036 52.0386 31.4638Z" fill="white"/>
<path d="M87.924 31.554C88.2248 31.7344 88.2549 32.0954 88.0142 33.1181C87.8337 33.84 87.6833 34.6823 87.6833 34.953C87.6833 35.5546 88.4354 35.6749 88.7662 35.1335C88.9166 34.8928 88.8264 34.8628 88.4955 34.9831C88.0744 35.1335 88.0142 35.0432 88.1346 34.5018C88.8565 31.2832 88.8565 31.2832 88.1646 31.2832C87.7134 31.2832 87.6533 31.3735 87.924 31.554Z" fill="white"/>
<path d="M40.4877 33.3587C39.9763 34.3513 39.3747 35.2237 39.1642 35.2838C38.9837 35.3741 39.1341 35.4643 39.5251 35.4643C39.9162 35.4944 40.1568 35.4041 40.0666 35.3139C39.7357 34.983 40.4576 33.9904 41.0291 33.9904C41.721 33.9904 42.1421 34.8928 41.6006 35.2537C41.36 35.4041 41.5405 35.4944 42.112 35.4944C42.6234 35.4944 42.864 35.3741 42.6835 35.2537C42.503 35.1334 42.2624 34.2611 42.1421 33.2985C42.0218 32.3661 41.8112 31.584 41.6909 31.584C41.5405 31.584 41.0291 32.3961 40.4877 33.3587ZM41.6608 33.088C41.6608 33.4189 41.4502 33.6896 41.2096 33.6896C40.6982 33.6896 40.6682 33.6294 40.9389 32.9677C41.2096 32.2758 41.6608 32.3661 41.6608 33.088Z" fill="white"/>
<path d="M75.7115 31.7947C75.8919 32.4264 75.2903 35.1637 74.9595 35.284C74.779 35.3742 75.3204 35.4645 76.1927 35.4645C77.4862 35.4946 77.7569 35.4043 77.7268 34.9531C77.7268 34.6523 77.6366 34.5922 77.5463 34.8027C77.4862 35.0133 77.0651 35.1938 76.674 35.1938C76.1025 35.1938 75.9521 35.0434 75.9521 34.4418C75.9521 33.8402 76.1025 33.6898 76.7041 33.6898C77.2155 33.6898 77.4561 33.5394 77.426 33.1483C77.426 32.8475 77.3358 32.7874 77.2455 32.9979C77.1854 33.2085 76.8846 33.389 76.6439 33.389C76.3131 33.389 76.2228 33.1483 76.3131 32.4866C76.4033 31.885 76.3131 31.5842 76.0423 31.5842C75.8318 31.5842 75.6814 31.6744 75.7115 31.7947Z" fill="white"/>
<path d="M77.6366 32.0354C77.757 32.276 77.8773 32.4866 77.9374 32.4866C77.9976 32.4866 78.0578 32.276 78.0578 32.0354C78.0578 31.7947 77.9374 31.5842 77.757 31.5842C77.6066 31.5842 77.5464 31.7947 77.6366 32.0354Z" fill="white"/>
<path d="M62.8671 32.3963C62.2054 33.9605 62.4761 36.3067 63.198 35.1336C63.3484 34.9231 63.2882 34.893 63.0175 35.0434C62.7167 35.2239 62.6866 35.1035 62.837 34.4418C63.2582 32.8475 63.3785 31.885 63.2281 31.885C63.1378 31.885 62.9874 32.1256 62.8671 32.3963Z" fill="white"/>
<path d="M45.1801 32.8173C45.3907 33.0279 45.6313 33.1181 45.7216 33.0279C45.8118 32.9377 45.6614 32.7572 45.3606 32.6669C44.9395 32.4865 44.9094 32.5165 45.1801 32.8173Z" fill="white"/>
<path d="M47.8874 32.8173C48.098 33.0279 48.3386 33.1181 48.4288 33.0279C48.5191 32.9377 48.3687 32.7572 48.0679 32.6669C47.6468 32.4865 47.6167 32.5165 47.8874 32.8173Z" fill="white"/>
<path d="M50.5344 33.2384C50.5344 33.6295 50.6247 33.8701 50.7751 33.7799C50.8954 33.7197 50.9856 33.4791 50.9856 33.2384C50.9856 32.9978 50.8954 32.7572 50.7751 32.697C50.6247 32.6068 50.5344 32.8474 50.5344 33.2384Z" fill="white"/>
<path d="M55.0464 33.2386C55.0464 33.78 55.1366 33.8703 55.4374 33.6296C55.6179 33.4492 55.7984 33.2085 55.7984 33.0882C55.7984 32.9679 55.6179 32.7874 55.4374 32.6972C55.1968 32.6069 55.0464 32.8175 55.0464 33.2386Z" fill="white"/>
<path d="M56.7011 32.7872C56.4003 32.9677 56.3702 33.088 56.6109 33.088C56.8214 33.088 56.9417 33.2685 56.8816 33.4489C56.4905 34.6822 56.4304 35.4944 56.7011 35.4944C56.8515 35.4944 57.0019 35.2237 57.0019 34.8627C57.0019 33.9904 57.5433 33.088 58.0547 33.088C58.2953 33.088 58.5059 32.9376 58.5059 32.7872C58.5059 32.3961 57.9945 32.3961 57.7238 32.8173C57.6035 33.0579 57.4531 33.0579 57.3328 32.8473C57.2125 32.6368 56.9718 32.6067 56.7011 32.7872Z" fill="white"/>
<path d="M59.3178 33.4491C58.1146 34.6523 58.3252 35.3441 59.9495 35.4043C60.6413 35.4043 61.273 35.3141 61.3632 35.1637C61.4836 35.0133 61.3332 34.9832 61.0624 35.0734C60.5812 35.284 60.5812 34.9832 61.0925 33.0581C61.3031 32.276 60.2503 32.5166 59.3178 33.4491ZM60.4308 33.7499C60.0096 35.1937 59.1072 35.7051 59.1072 34.5019C59.1072 33.7198 59.6186 33.0881 60.2503 33.0881C60.521 33.0881 60.5812 33.2987 60.4308 33.7499Z" fill="white"/>
<path d="M64.672 32.7872C64.3411 32.9376 64.2509 33.0579 64.4614 33.0579C64.7622 33.088 64.8224 33.3888 64.672 34.2912C64.5216 35.2537 64.5517 35.4944 64.9427 35.4944C65.1833 35.4944 65.4841 35.344 65.6045 35.1334C65.7549 34.9229 65.6947 34.8928 65.424 35.0432C65.1232 35.2237 65.063 35.0131 65.2134 33.9001C65.3337 33.1181 65.3939 32.4864 65.3337 32.5165C65.3037 32.5165 65.0029 32.6368 64.672 32.7872Z" fill="white"/>
<path d="M66.7777 32.8174C66.4468 32.9377 66.3566 33.058 66.5671 33.058C66.8679 33.0881 66.9281 33.419 66.8078 34.3515C66.6574 35.4644 66.6574 35.5547 66.9582 34.8929C67.5898 33.4491 67.7402 33.2385 68.2215 33.1483C68.6426 33.058 68.6426 33.2084 68.402 34.0507C68.2516 34.5921 68.1313 35.1336 68.1313 35.2539C68.1313 35.6148 68.9735 35.5246 69.2142 35.1336C69.3646 34.923 69.3044 34.8929 69.0638 35.0433C68.763 35.1937 68.7329 34.923 68.8833 33.8702C69.0939 32.4865 68.9435 32.2459 68.1313 32.7873C67.8906 32.9377 67.6199 32.9377 67.5297 32.8174C67.4394 32.667 67.1086 32.667 66.7777 32.8174Z" fill="white"/>
<path d="M71.3798 32.6971C71.5603 32.7573 71.7408 33.2085 71.7709 33.6296C71.7709 34.1109 71.8611 34.2613 71.9514 33.9906C72.0416 33.7499 72.3123 33.2987 72.583 32.9979C72.8838 32.6671 72.9139 32.4866 72.7034 32.4866C72.4928 32.4866 72.3424 32.637 72.3424 32.8475C72.3424 33.1183 72.2522 33.1183 71.9814 32.8475C71.7709 32.637 71.4701 32.4866 71.3197 32.5167C71.1392 32.5167 71.1693 32.6069 71.3798 32.6971Z" fill="white"/>
<path d="M79.1706 32.6971C79.0503 32.8776 79.1706 33.0882 79.4112 33.2085C79.6519 33.2987 79.8624 33.6296 79.8624 33.9304C79.8624 34.5621 79.1706 35.3141 78.8999 35.0133C78.8096 34.923 78.6291 34.9832 78.5088 35.1637C78.208 35.6751 78.9901 35.5547 79.6218 34.9832C80.1331 34.532 80.1632 34.532 80.1632 34.9832C80.1632 35.5247 80.9152 35.6751 81.216 35.1938C81.3063 35.0133 81.1859 34.9832 80.9453 35.0735C80.6144 35.1938 80.464 35.0735 80.464 34.6523C80.464 33.7198 80.7949 33.0882 81.2461 33.0882C81.4867 33.0882 81.6672 32.9378 81.6672 32.7874C81.6672 32.276 81.0957 32.4565 80.7047 33.0581C80.3738 33.5995 80.3437 33.5995 79.8624 32.9979C79.5616 32.637 79.2909 32.5166 79.1706 32.6971Z" fill="white"/>
<path d="M83.6828 32.8173C83.8934 33.0279 84.134 33.1181 84.2243 33.0279C84.3145 32.9377 84.1641 32.7572 83.8633 32.6669C83.4422 32.4865 83.4121 32.5165 83.6828 32.8173Z" fill="white"/>
<path d="M86.3298 33.2386C86.3298 33.78 86.4201 33.8703 86.7209 33.6296C86.9014 33.4492 87.0818 33.2085 87.0818 33.0882C87.0818 32.9679 86.9014 32.7874 86.7209 32.6972C86.4802 32.6069 86.3298 32.8175 86.3298 33.2386Z" fill="white"/>
<path d="M92.9475 33.2384C92.9475 33.6295 93.0377 33.8701 93.1882 33.7799C93.3085 33.7197 93.3987 33.4791 93.3987 33.2384C93.3987 32.9978 93.3085 32.7572 93.1882 32.697C93.0377 32.6068 92.9475 32.8474 92.9475 33.2384Z" fill="white"/>
<path d="M94.7522 32.727C94.5717 32.8473 94.4213 33.5392 94.3913 34.2912C94.3311 35.4944 94.3612 35.5545 94.6319 34.8928C94.8124 34.4717 95.053 33.9302 95.2034 33.6896C95.4742 33.1181 96.4367 32.9075 96.2863 33.4489C95.8351 34.8928 95.805 35.4944 96.2262 35.4944C96.4668 35.4944 96.7676 35.344 96.8879 35.1334C97.0383 34.9229 96.9782 34.8928 96.7375 35.0432C96.4367 35.1936 96.4066 34.9229 96.557 33.8701C96.7676 32.4864 96.6172 32.2457 95.805 32.7872C95.5644 32.9376 95.2937 32.9376 95.2034 32.7872C95.1132 32.6368 94.9026 32.6067 94.7522 32.727Z" fill="white"/>
<path d="M99.3244 32.8173C99.535 33.0279 99.7756 33.1181 99.8659 33.0279C99.9561 32.9377 99.8057 32.7572 99.5049 32.6669C99.0838 32.4865 99.0537 32.5165 99.3244 32.8173Z" fill="white"/>
<path d="M101.971 33.2384C101.971 33.6295 102.061 33.8701 102.212 33.7799C102.332 33.7197 102.422 33.4791 102.422 33.2384C102.422 32.9978 102.332 32.7572 102.212 32.697C102.061 32.6068 101.971 32.8474 101.971 33.2384Z" fill="white"/>
<path d="M44.1273 33.1481C43.9168 33.3587 43.7664 33.9603 43.7664 34.5017C43.7664 35.344 43.8566 35.4944 44.4883 35.4944C44.9094 35.4944 45.3004 35.3741 45.3907 35.2237C45.511 35.0733 45.3004 35.0131 44.9696 35.1033C44.2176 35.3139 43.8867 34.5017 44.3078 33.5091C44.6988 32.6969 44.6688 32.6067 44.1273 33.1481Z" fill="white"/>
<path d="M46.5942 33.5392C45.9625 34.5017 46.2934 35.4944 47.256 35.4944C47.647 35.4944 47.9779 35.3741 47.9779 35.2237C47.9779 35.0733 47.7373 34.983 47.4665 35.0131C46.8048 35.0432 46.5641 33.84 47.0755 33.2083C47.2861 32.9977 47.3763 32.7872 47.256 32.7872C47.1657 32.7872 46.8649 33.1181 46.5942 33.5392Z" fill="white"/>
<path d="M49.211 33.5694C49.0305 34.0207 48.9403 34.6223 49.0305 34.9231C49.2411 35.5247 50.2036 35.7051 50.5044 35.2239C50.6248 35.0735 50.4142 35.0133 50.0833 35.1035C49.6622 35.2239 49.4817 35.1035 49.4817 34.7727C49.4817 34.5019 49.6622 34.2914 49.8728 34.2914C50.1134 34.2914 50.1134 34.2011 49.8126 34.0207C49.4516 33.78 49.4516 33.6597 49.7524 33.2686C49.9931 32.9979 50.0232 32.7874 49.8728 32.7874C49.7224 32.7874 49.4216 33.1483 49.211 33.5694Z" fill="white"/>
<path d="M54.0538 33.1481C53.8433 33.3587 53.6929 33.9603 53.6929 34.5017C53.6929 35.344 53.7831 35.4944 54.4148 35.4944C54.8359 35.4944 55.227 35.3741 55.3172 35.2237C55.4375 35.0733 55.227 35.0131 54.8961 35.1033C54.1441 35.3139 53.8132 34.5017 54.2343 33.5091C54.6254 32.6969 54.5953 32.6067 54.0538 33.1481Z" fill="white"/>
<path d="M70.4173 33.1482C70.2669 33.449 70.2369 33.8702 70.3271 34.1108C70.4173 34.3214 70.3271 34.6823 70.1466 34.8628C69.9661 35.0433 69.9361 35.1937 70.0564 35.1937C70.2068 35.1937 70.1466 35.4042 69.9361 35.6449C69.0337 36.7278 70.8385 37.57 71.8913 36.5172C72.523 35.8554 72.3124 35.3742 71.3498 35.2538C70.4474 35.1335 70.2369 34.5921 71.0791 34.5921C71.41 34.5921 71.4702 34.5018 71.2596 34.3514C71.049 34.2311 70.8385 33.81 70.7783 33.3889C70.658 32.7572 70.5978 32.7271 70.4173 33.1482ZM71.5905 36.0961C71.5905 36.6375 70.5978 36.8782 70.1767 36.457C69.9962 36.2766 69.9661 36.0058 70.0865 35.7953C70.3873 35.314 71.5905 35.5546 71.5905 36.0961Z" fill="white"/>
<path d="M82.5996 33.2084C82.0582 33.8702 82.2988 35.314 82.9907 35.4343C83.2915 35.4945 83.6825 35.4042 83.863 35.2238C84.0735 35.0132 83.9532 34.9831 83.5321 35.1034C82.7199 35.314 82.359 34.5319 82.8102 33.5092C83.2012 32.697 83.111 32.5767 82.5996 33.2084Z" fill="white"/>
<path d="M85.3371 33.1483C85.0062 33.5694 84.8859 34.1409 84.9461 34.9531C84.9761 35.5547 86.2997 35.7352 86.6305 35.1937C86.7509 35.0132 86.5102 34.923 86.1192 34.9832C85.6078 35.0132 85.3973 34.8628 85.3371 34.3515C85.2769 33.9604 85.3973 33.4491 85.5777 33.2084C85.7883 32.9979 85.8785 32.7873 85.7883 32.7873C85.7281 32.7873 85.5176 32.9678 85.3371 33.1483Z" fill="white"/>
<path d="M91.6238 33.5694C91.4434 34.0207 91.3531 34.6223 91.4434 34.9231C91.6539 35.5247 92.6165 35.7051 92.9173 35.2239C93.0376 35.0735 92.827 35.0133 92.4962 35.1035C92.075 35.2239 91.8946 35.1035 91.8946 34.7727C91.8946 34.5019 92.075 34.2914 92.2856 34.2914C92.5262 34.2914 92.5262 34.2011 92.2254 34.0207C91.8645 33.78 91.8645 33.6597 92.1653 33.2686C92.4059 32.9979 92.436 32.7874 92.2856 32.7874C92.1352 32.7874 91.8344 33.1483 91.6238 33.5694Z" fill="white"/>
<path d="M98.2714 33.1483C97.9405 33.5695 97.8202 34.141 97.8804 34.9531C97.9105 35.5247 99.234 35.7352 99.5348 35.2239C99.6551 35.0735 99.4445 35.0133 99.1137 35.1035C98.3617 35.3141 98.0308 34.5019 98.4519 33.5093C98.8429 32.7272 98.7527 32.5768 98.2714 33.1483Z" fill="white"/>
<path d="M100.648 33.5693C100.167 34.6521 100.497 35.4944 101.4 35.4944C101.791 35.4944 102.122 35.3741 102.122 35.2237C102.122 35.0733 101.851 35.0131 101.52 35.1033C101.099 35.2237 100.919 35.1033 100.919 34.7725C100.919 34.5017 101.099 34.2912 101.31 34.2912C101.55 34.2912 101.55 34.2009 101.249 34.0205C100.889 33.7798 100.889 33.6595 101.189 33.2685C101.43 32.9977 101.46 32.7872 101.31 32.7872C101.159 32.7872 100.858 33.1481 100.648 33.5693Z" fill="white"/>
</svg>
